<?xml version="1.0" encoding="UTF-8"?><svg id="astronaut_red" xmlns="http://www.w3.org/2000/svg" viewBox="0 0 360 360"><defs><style>.cls-1{stroke:gray;stroke-width:2.97px;}.cls-1,.cls-2{fill:none;stroke-linecap:round;}.cls-1,.cls-2,.cls-3{stroke-miterlimit:10;}.cls-4{fill:#f2f2f2;}.cls-5{fill:#ffde00;}.cls-6{fill:#f16624;}.cls-7,.cls-3{fill:#9fd3ee;}.cls-8{fill:#bf272d;}.cls-9{fill:#ccc;}.cls-10{fill:#db504a;}.cls-11{fill:#dad8d8;}.cls-12{fill:#29abe2;}.cls-2{stroke:#e6e6e6;stroke-width:11.39px;}.cls-3{stroke:#db504a;stroke-width:2.85px;}</style></defs><g id="astronaut_1"><g id="rocket_fire_1"><g id="fire"><polyline class="cls-5" points="96.84 347.93 102.99 300.26 120.43 322.23 119.41 288.39 139.67 300.51 129.78 275.79 148.59 278.14 131.97 262.33 147.56 253.79 97.99 215.46 46.12 253.79 61.71 262.33 45.09 278.14 63.91 275.79 54.01 300.51 74.28 288.39 73.26 322.23 90.69 300.26 96.84 347.93"/><polyline class="cls-6" points="96.84 290.85 100.11 265.56 109.36 277.22 108.81 259.27 119.57 265.69 114.32 252.58 124.3 253.83 115.48 245.44 123.75 240.91 97.45 220.57 69.93 240.91 78.2 245.44 69.39 253.83 79.37 252.58 74.12 265.69 84.87 259.27 84.33 277.22 93.58 265.56 96.84 290.85"/></g><g id="rocket_ship"><g><path class="cls-10" d="M57.92,202.95c-15.53,2.57-27.33,15.19-27.33,30.39,0,11.98,7.33,22.36,18.04,27.48,1.05,.5,2.23-.42,1.9-1.47-.88-2.76-1.36-5.67-1.36-8.7,0-8.85,4.02-16.81,10.42-22.44-1.47-7.85-1.99-16.44-1.67-25.26Z"/><path class="cls-10" d="M135.76,202.95c15.53,2.57,27.33,15.19,27.33,30.39,0,11.98-7.33,22.36-18.04,27.48-1.05,.5-2.23-.42-1.9-1.47,.88-2.76,1.36-5.67,1.36-8.7,0-8.85-4.02-16.81-10.42-22.44,1.47-7.85,1.99-16.44,1.67-25.26Z"/></g><path class="cls-11" d="M63.81,151.41c-11.14,28.75-13.91,66.45-3.38,90.23,20.27,9.95,52.65,9.95,72.82,0,10.53-23.78,7.76-61.48-3.37-90.23-9.9,1.86-21.13,2.91-33.03,2.91s-23.13-1.06-33.03-2.91Z"/><path class="cls-10" d="M104.4,115.72c-4.54-2.81-10.58-2.81-15.12,0-10.52,6.5-19.28,19.72-25.47,35.7,9.9,1.86,21.13,2.91,33.03,2.91s23.13-1.06,33.03-2.91c-6.19-15.98-14.95-29.2-25.47-35.7Z"/><circle class="cls-3" cx="96.84" cy="189" r="14.36"/></g></g><g id="astronaut_fly"><path class="cls-8" d="M319.88,87.17c-11.09-45.87-53.8-75.09-104.83-75.09-59.46,0-110.12,41.2-110.12,100.66,0,29.05,13.98,50.45,32.68,66.34-7.38,10.92-13.82,22.46-18.99,34.58-12.76,29.9-22.76,68.41,32.27,80.09,2.7,6.57,6.86,15.36,4.88,17.71-.66,.52-1.2,1.27-2.14,1.82,0,0,0,0-.01,0,0,0,0,0,0,0-2.64,3.02,1.41,11.33,5.34,15.15,.09,.09,.19,.17,.28,.26,.05,.05,.11,.1,.16,.15,1.04,.87,3.57,2.65,3.48-.43,0-.02,0-.05,0-.07,0,.02,0,.05,.01,.07,7.5-1.31,17.29-4.89,22.22-8.57,3.83-2.86,4.92-10.11,1.35-21.67,6.08,.43,11.85,.66,17.26,.64,1.08,2.44,1.35,4.75-.23,6.41-.78,.56-1.42,1.34-2.53,1.96,0,0,0,0-.01,0,0,0,0,0,0,0-3.14,3.2,1.22,11.4,5.61,15.06,.1,.09,.21,.16,.31,.25,.06,.05,.12,.1,.18,.14,1.17,.83,4.01,2.5,4.03-.62,0-.02,0-.05,0-.07-.03-.2-.05-.4-.09-.6,.01,0,.06,.02,.06,.02,.02,.22,.02,.4,.02,.58,0,.02,0,.05,.01,.07,8.68-1.72,20.08-5.84,25.88-9.83,4.44-3.05,5.99-8.38,2.52-18.86,26.94-10.37,37.68-36.57,35.21-88.21-.22-4.64-.77-9.06-1.57-13.3,8.11-4.07,15.49-9.05,21.92-14.95,23.41-50.71-20.77-34.13-43.43-28.35-8.84-9.95-19.38-17.91-30.14-24.22-.04-1.66-.11-3.37-.26-5.21-3.47-41.61-27.26-27.83,19.99-31.77,35.34-2.95,88.21,57.43,78.68-.12Z"/><path class="cls-10" d="M186.19,236.14l-8.89-2.37c-2.96-.79-5.99,.97-6.78,3.93l-4.95,18.57c7.67,.99,14.28,4.56,18.42,9.61l6.12-22.97c.79-2.96-.97-5.99-3.93-6.78Z"/><path class="cls-10" d="M289.8,213.14l-8.89-2.37c-2.96-.79-5.99,.97-6.78,3.93l-4.95,18.57c7.67,.99,14.28,4.56,18.42,9.61l6.12-22.97c.79-2.96-.97-5.99-3.93-6.78Z"/><path class="cls-9" d="M211.08,321.99c-.02,3.12-2.86,1.44-4.03,.62-.08-.05-.14-.1-.2-.14-.18-.13-.3-.23-.3-.23,0,0,0-.01,0-.02-4.38-3.66-8.75-11.86-5.61-15.06,0,0,0,0,0,0,0,0,0,0,.01,0-1.24-.72-2.49-1.27-3.71-1.62-3.92-1.12-7.57,2.34-6.84,6.35,2.56,14,8.49,17.59,14.19,19.09,3.07,.81,6.12-1.37,6.51-4.52,.19-1.54,.16-3.03-.02-4.47,0,0,0,0,0,0Z"/><g id="left_leg"><path class="cls-12" d="M163.93,328.09s0,0,0,0c0-.02,0-.05,0-.07,0,.02,0,.05,0,.07Z"/><path class="cls-9" d="M162.26,327.25c-.04,3.12-1.2,2.26-2.36,1.43-.08-.05-.14-.1-.2-.15-.18-.13-.29-.23-.29-.23,0,0,0-.01,0-.02-4.36-3.7-6.5-10.92-5.49-15.1,0,0,0,0,0,0,0,0,0,0,.01,0-1.23-.73-2.48-1.29-3.7-1.65-3.91-1.15-7.59,2.29-6.89,6.3,2.45,14.02,8.36,17.65,14.05,19.2,3.07,.83,5.28-1.33,6.07-4.41,.72-2.78-.79-5.74-.87-5.88,0,0-.32,.5-.32,.5Z"/><path class="cls-12" d="M163.91,327.44s-.05-.02-.06-.02c.03,.2,.06,.4,.08,.6,0-.18,0-.36-.02-.58Z"/><path class="cls-12" d="M159.7,328.54c.06,.05,.12,.09,.2,.15-.06-.05-.12-.1-.18-.14,0,0-.01,0-.02,0Z"/><path class="cls-12" d="M159.7,328.54s.01,0,.02,0c-.1-.08-.21-.16-.31-.25,0,0,0,.01,0,.02,0,0,.11,.09,.29,.23Z"/></g><path class="cls-1" d="M160.17,224.5c-3.1,2.96-6.76,19-4.5,24.07"/><path class="cls-9" d="M180.36,290.75c-9.64,7.62-25.03,4.2-34.38-7.64-9.35-11.83-9.12-27.6,.52-35.22,6.43-5.08,13.93-6.27,21.63-2.72,5.61,2.59,5.74,7.1,8.25,12.74,1.53,3.44,6.24,5.77,8.66,7.56,7.42,5.51,4.12,18.32-4.68,25.28Z"/><path class="cls-9" d="M287.27,260.93c-7.85,13.27-22.58,19.09-32.89,12.99-10.31-6.1-12.3-21.81-4.45-35.08,5.24-8.85,12.01-14.51,19.64-15.6,5.55-.8,6.31,3.58,9.42,7.65,1.9,2.49,6.59,1.96,9.07,2.29,7.64,1,6.38,15.63-.79,27.75Z"/><path class="cls-7" d="M329.17,116.14c-.87-10.49-4.14-20.27-9.3-28.97-15.29-25.84-47.19-42.18-82.53-39.23-47.25,3.94-82.74,40.86-79.27,82.47,3.47,41.61,44.58,63.6,91.83,59.66,16.99-1.42,32.45-6.01,45.14-13.23,22.59-12.85,36.35-34.05,34.13-60.7Z"/><g id="ear_thing"><ellipse class="cls-4" cx="131.98" cy="126.32" rx="22.61" ry="32.29" transform="translate(-28 38.11) rotate(-14.87)"/><ellipse class="cls-9" cx="124.97" cy="129.32" rx="15.08" ry="28.37" transform="translate(-29.01 36.41) rotate(-14.87)"/></g><path class="cls-2" d="M189.15,112.73c5.14-17.78,16.38-30.64,31.19-34.62"/></g></g></svg>