<svg width="16" height="12" viewBox="0 0 16 12" fill="none" xmlns="http://www.w3.org/2000/svg">
<path fill-rule="evenodd" clip-rule="evenodd" d="M7.563 0.0689982C7.69333 0.128849 7.80376 0.224811 7.88122 0.345511C7.95867 0.46621 7.99989 0.606585 8 0.749998V11.25C8.00009 11.3935 7.95903 11.5339 7.88169 11.6548C7.80436 11.7756 7.69398 11.8717 7.56367 11.9317C7.43335 11.9917 7.28856 12.0131 7.14647 11.9933C7.00437 11.9735 6.87094 11.9133 6.762 11.82L3.472 9H1.75C1.28587 9 0.840752 8.81562 0.512563 8.48744C0.184374 8.15925 0 7.71413 0 7.25L0 4.75C0 3.784 0.784 3 1.75 3H3.473L6.762 0.179998C6.87096 0.0869012 7.0043 0.0269698 7.14626 0.00729805C7.28821 -0.0123737 7.43283 0.00903781 7.563 0.0689982ZM6.5 2.38L4.238 4.319C4.10215 4.43565 3.92906 4.49985 3.75 4.5H1.75C1.6837 4.5 1.62011 4.52634 1.57322 4.57322C1.52634 4.62011 1.5 4.68369 1.5 4.75V7.25C1.5 7.388 1.612 7.5 1.75 7.5H3.75C3.92893 7.49987 4.10201 7.56371 4.238 7.68L6.5 9.62V2.38ZM12.596 0.341998C12.7366 0.201548 12.9272 0.122658 13.126 0.122658C13.3248 0.122658 13.5154 0.201548 13.656 0.341998C14.3989 1.08487 14.9882 1.9668 15.3903 2.93744C15.7924 3.90807 15.9993 4.94839 15.9993 5.999C15.9993 7.04961 15.7924 8.08993 15.3903 9.06056C14.9882 10.0312 14.3989 10.9131 13.656 11.656C13.5138 11.7885 13.3258 11.8606 13.1315 11.8572C12.9372 11.8537 12.7518 11.775 12.6144 11.6376C12.477 11.5002 12.3983 11.3148 12.3948 11.1205C12.3914 10.9262 12.4635 10.7382 12.596 10.596C13.1997 9.99241 13.6785 9.27581 14.0052 8.48714C14.332 7.69847 14.5001 6.85316 14.5001 5.9995C14.5001 5.14583 14.332 4.30053 14.0052 3.51186C13.6785 2.72318 13.1997 2.00659 12.596 1.403C12.4555 1.26237 12.3767 1.07175 12.3767 0.872998C12.3767 0.674247 12.4555 0.483623 12.596 0.342998V0.341998ZM11.536 2.463C11.3953 2.3223 11.2045 2.24326 11.0055 2.24326C10.8065 2.24326 10.6157 2.3223 10.475 2.463C10.3343 2.6037 10.2553 2.79452 10.2553 2.9935C10.2553 3.19247 10.3343 3.3833 10.475 3.524C10.8 3.84901 11.0579 4.23486 11.2338 4.65952C11.4097 5.08419 11.5003 5.53934 11.5003 5.999C11.5003 6.45865 11.4097 6.91381 11.2338 7.33847C11.0579 7.76313 10.8 8.14899 10.475 8.474C10.4013 8.54266 10.3422 8.62546 10.3012 8.71746C10.2602 8.80946 10.2382 8.90877 10.2364 9.00948C10.2346 9.11018 10.2532 9.21021 10.2909 9.3036C10.3286 9.39698 10.3847 9.48182 10.456 9.55304C10.5272 9.62426 10.612 9.6804 10.7054 9.71812C10.7988 9.75584 10.8988 9.77437 10.9995 9.77259C11.1002 9.77081 11.1995 9.74877 11.2915 9.70778C11.3835 9.66679 11.4663 9.60769 11.535 9.534C12.4724 8.59636 12.9989 7.32482 12.9989 5.999C12.9989 4.67318 12.4724 3.40164 11.535 2.464L11.536 2.463Z" fill="white"/>
</svg>
