<svg xmlns="http://www.w3.org/2000/svg" viewBox="0 0 360 360"><defs><style>.cls-1{fill:#4d4d4d;}.cls-2{fill:#999;}</style></defs><g id="astroid"><g id="astroid-2" data-name="astroid"><path class="cls-1" d="M334.4,198.22c-5.31,32.65-18.92,67.77-36.87,93.46-22.89,24.68-66.75,52.42-120.47,49.58-113.2-6-144.35-75.94-153.82-127.65,0-21.78,8.9-33.92,16.88-52.21C50.67,85.77,110.46,45.53,175.94,39.76c39.37-3.47,53.54-16,91.26,38.29,3.95,5.7,11.37,10.58,15.29,12.66C332.08,117.09,341.88,152.21,334.4,198.22Z"/><path class="cls-2" d="M329,192.31c.66,8.64-3.51,20.88-9,32.75-7.68,16.53-16.46,32.57-22.5,49.84a29.36,29.36,0,0,1-15.59,17.62c-12,5.7-23,13.59-34.86,19.29-35.86,17.31-73.2,26.54-112.72,11.39a167.79,167.79,0,0,0-24.16-7.36c-29-6.35-46-25.5-55.58-52.17C50.4,252,44.5,241.33,38.5,230.68c-7.48-13.29-10.21-25.76-2.09-40.44,9-16.25,13.68-34.19,17-52.79,4.47-25.2,20.6-44,39.87-60.15,21.39-17.9,46-27.66,73.7-30.49,10.07-1,20-3.71,29.9-6,17.06-4,31.19.49,42.33,14,4.68,5.68,9.51,11.28,13.7,17.31,8.84,12.72,19.6,22.84,34.54,27.94,17.84,6.09,28.11,19.19,33.08,36.74C325.2,153.37,328.82,170.18,329,192.31Zm-109.39-1.84c-.35,13.2,9.59,27.37,19.33,27.54,23.65.41,40.16-26.19,29-47-5.45-10.17-15.25-12.83-25.83-13.13s-15.67,6-18.78,15.22C221.4,178.78,219.76,184.44,219.63,190.47ZM133.18,259c20.28.07,30.79-12.33,25.36-29.92-3.34-10.83-12.08-13.83-21.15-7-4.75,3.57-9.12,7.65-13.73,11.41-4.86,4-11.07,7.39-8.16,15.22C118.48,256.73,125.12,259.26,133.18,259ZM182.39,96.17c-12.65-.07-17.31,3.36-17.13,11.71.16,8,8.17,14.17,17.92,13.93,7.91-.19,16-7.76,15.47-15.63C197.94,94.63,188.33,97.24,182.39,96.17Zm62.72-1.82c-6.1.26-10.55,2.74-10.77,9.15s4.31,8.35,9.83,8,11.22-1.44,11.48-8.18S250.68,94.87,245.11,94.35ZM225.77,287.24c-1.31-6.33-6.14-7.23-11.19-7.09-5.74.16-9.39,3.55-9.09,9.28.31,6,5.25,8.39,10.34,8.16C221.75,297.32,224.79,293,225.77,287.24Z"/></g></g></svg>