<svg xmlns="http://www.w3.org/2000/svg" viewBox="0 0 360 360"><defs><style>.cls-1{fill:#97d4c8;opacity:0.2;}.cls-2{fill:#899999;}.cls-3{fill:#ffde00;}</style></defs><g id="satellite"><g id="satellite-2" data-name="satellite"><path class="cls-1" d="M209.94,51.87c.32.29.25.49-.15.61C209.75,52.25,209.66,52,209.94,51.87Z"/><path class="cls-2" d="M203.74,213.61c21.67-2.14,38.48-17.44,38.48-36s-16.81-33.87-38.48-36a57.61,57.61,0,0,1,0,72Z"/><path class="cls-2" d="M204.16,213.61c21.68-2.14,38.49-17.44,38.49-36s-16.81-33.87-38.49-36c7.82,9.25,12.64,22,12.64,36S212,204.36,204.16,213.61Z"/><path class="cls-2" d="M204.59,213.61c21.67-2.14,38.48-17.44,38.48-36s-16.81-33.87-38.48-36a57.61,57.61,0,0,1,0,72Z"/><path class="cls-2" d="M205,213.61c21.68-2.14,38.49-17.44,38.49-36s-16.81-33.87-38.49-36a57.61,57.61,0,0,1,0,72Z"/><path class="cls-2" d="M205.44,213.61c21.67-2.14,38.48-17.44,38.48-36s-16.81-33.87-38.48-36a57.61,57.61,0,0,1,0,72Z"/><path class="cls-2" d="M205.86,213.61c21.67-2.14,38.49-17.44,38.49-36s-16.82-33.87-38.49-36a57.61,57.61,0,0,1,0,72Z"/><path class="cls-2" d="M206.28,213.61c21.68-2.14,38.49-17.44,38.49-36s-16.81-33.87-38.49-36a57.58,57.58,0,0,1,0,72Z"/><path class="cls-2" d="M206.71,213.61c21.67-2.14,38.49-17.44,38.49-36s-16.82-33.87-38.49-36a57.61,57.61,0,0,1,0,72Z"/><path class="cls-2" d="M207.13,213.61c21.68-2.14,38.49-17.44,38.49-36s-16.81-33.87-38.49-36a57.58,57.58,0,0,1,0,72Z"/><path class="cls-2" d="M207.56,213.61c21.67-2.14,38.48-17.44,38.48-36s-16.81-33.87-38.48-36a57.61,57.61,0,0,1,0,72Z"/><path class="cls-2" d="M208,213.61c21.68-2.14,38.49-17.44,38.49-36s-16.81-33.87-38.49-36a57.58,57.58,0,0,1,0,72Z"/><path class="cls-2" d="M208.41,213.61c21.67-2.14,38.48-17.44,38.48-36s-16.81-33.87-38.48-36a57.61,57.61,0,0,1,0,72Z"/><path class="cls-2" d="M208.83,213.61c21.68-2.14,38.49-17.44,38.49-36s-16.81-33.87-38.49-36c7.82,9.25,12.64,22,12.64,36S216.65,204.36,208.83,213.61Z"/><path class="cls-2" d="M209.26,213.61c21.67-2.14,38.48-17.44,38.48-36s-16.81-33.87-38.48-36a57.61,57.61,0,0,1,0,72Z"/><path class="cls-2" d="M209.68,213.61c21.68-2.14,38.49-17.44,38.49-36s-16.81-33.87-38.49-36a57.61,57.61,0,0,1,0,72Z"/><path class="cls-2" d="M210.11,213.61c21.67-2.14,38.48-17.44,38.48-36s-16.81-33.87-38.48-36a57.61,57.61,0,0,1,0,72Z"/><path class="cls-2" d="M210.53,213.61c21.67-2.14,38.49-17.44,38.49-36s-16.82-33.87-38.49-36a57.61,57.61,0,0,1,0,72Z"/><path class="cls-2" d="M211,213.61c21.68-2.14,38.49-17.44,38.49-36s-16.81-33.87-38.49-36a57.58,57.58,0,0,1,0,72Z"/><path class="cls-2" d="M211.38,213.61c21.67-2.14,38.49-17.44,38.49-36s-16.82-33.87-38.49-36a57.61,57.61,0,0,1,0,72Z"/><path class="cls-2" d="M211.8,213.61c21.68-2.14,38.49-17.44,38.49-36s-16.81-33.87-38.49-36a57.58,57.58,0,0,1,0,72Z"/><path class="cls-2" d="M212.23,213.61c21.67-2.14,38.48-17.44,38.48-36s-16.81-33.87-38.48-36a57.61,57.61,0,0,1,0,72Z"/><path class="cls-2" d="M212.65,213.61c21.68-2.14,38.49-17.44,38.49-36s-16.81-33.87-38.49-36a57.58,57.58,0,0,1,0,72Z"/><path class="cls-2" d="M213.08,213.61c21.67-2.14,38.48-17.44,38.48-36s-16.81-33.87-38.48-36a57.61,57.61,0,0,1,0,72Z"/><path class="cls-2" d="M213.5,213.61c21.68-2.14,38.49-17.44,38.49-36s-16.81-33.87-38.49-36c7.82,9.25,12.64,22,12.64,36S221.32,204.36,213.5,213.61Z"/><path class="cls-2" d="M213.93,213.61c21.67-2.14,38.48-17.44,38.48-36s-16.81-33.87-38.48-36a57.61,57.61,0,0,1,0,72Z"/><path class="cls-2" d="M214.35,213.61c21.68-2.14,38.49-17.44,38.49-36s-16.81-33.87-38.49-36a57.61,57.61,0,0,1,0,72Z"/><path class="cls-2" d="M214.78,213.61c21.67-2.14,38.48-17.44,38.48-36s-16.81-33.87-38.48-36a57.61,57.61,0,0,1,0,72Z"/><path class="cls-2" d="M215.2,213.61c21.68-2.14,38.49-17.44,38.49-36s-16.81-33.87-38.49-36a57.61,57.61,0,0,1,0,72Z"/><path class="cls-2" d="M215.62,213.61c21.68-2.14,38.49-17.44,38.49-36s-16.81-33.87-38.49-36a57.58,57.58,0,0,1,0,72Z"/><path class="cls-2" d="M216.05,213.61c21.67-2.14,38.49-17.44,38.49-36s-16.82-33.87-38.49-36a57.61,57.61,0,0,1,0,72Z"/><path class="cls-2" d="M216.47,213.61c21.68-2.14,38.49-17.44,38.49-36s-16.81-33.87-38.49-36a57.58,57.58,0,0,1,0,72Z"/><path class="cls-2" d="M216.9,213.61c21.67-2.14,38.48-17.44,38.48-36s-16.81-33.87-38.48-36a57.61,57.61,0,0,1,0,72Z"/><path class="cls-2" d="M217.32,213.61c21.68-2.14,38.49-17.44,38.49-36s-16.81-33.87-38.49-36a57.58,57.58,0,0,1,0,72Z"/><path class="cls-2" d="M217.75,213.61c21.67-2.14,38.48-17.44,38.48-36s-16.81-33.87-38.48-36a57.61,57.61,0,0,1,0,72Z"/><path class="cls-2" d="M218.17,213.61c21.68-2.14,38.49-17.44,38.49-36s-16.81-33.87-38.49-36c7.82,9.25,12.64,22,12.64,36S226,204.36,218.17,213.61Z"/><path class="cls-2" d="M218.6,213.61c21.67-2.14,38.48-17.44,38.48-36s-16.81-33.87-38.48-36a57.61,57.61,0,0,1,0,72Z"/><path class="cls-2" d="M219,213.61c21.68-2.14,38.49-17.44,38.49-36s-16.81-33.87-38.49-36a57.61,57.61,0,0,1,0,72Z"/><path class="cls-2" d="M219.45,213.61c21.67-2.14,38.48-17.44,38.48-36s-16.81-33.87-38.48-36a57.61,57.61,0,0,1,0,72Z"/><path class="cls-2" d="M219.87,213.61c21.68-2.14,38.49-17.44,38.49-36s-16.81-33.87-38.49-36a57.61,57.61,0,0,1,0,72Z"/><path class="cls-2" d="M220.29,213.61c21.68-2.14,38.49-17.44,38.49-36s-16.81-33.87-38.49-36a57.58,57.58,0,0,1,0,72Z"/><path class="cls-2" d="M220.72,213.61c21.67-2.14,38.49-17.44,38.49-36s-16.82-33.87-38.49-36a57.61,57.61,0,0,1,0,72Z"/><path class="cls-2" d="M221.14,213.61c21.68-2.14,38.49-17.44,38.49-36s-16.81-33.87-38.49-36a57.58,57.58,0,0,1,0,72Z"/><path class="cls-2" d="M221.57,213.61c21.67-2.14,38.48-17.44,38.48-36s-16.81-33.87-38.48-36a57.61,57.61,0,0,1,0,72Z"/><path class="cls-2" d="M222,213.61c21.68-2.14,38.49-17.44,38.49-36s-16.81-33.87-38.49-36a57.58,57.58,0,0,1,0,72Z"/><path class="cls-2" d="M222.42,213.61c21.67-2.14,38.48-17.44,38.48-36s-16.81-33.87-38.48-36a57.61,57.61,0,0,1,0,72Z"/><path class="cls-2" d="M222.84,213.61c21.68-2.14,38.49-17.44,38.49-36s-16.81-33.87-38.49-36c7.82,9.25,12.64,22,12.64,36S230.66,204.36,222.84,213.61Z"/><path class="cls-2" d="M223.27,213.61c21.67-2.14,38.48-17.44,38.48-36s-16.81-33.87-38.48-36a57.61,57.61,0,0,1,0,72Z"/><path class="cls-2" d="M223.69,213.61c21.68-2.14,38.49-17.44,38.49-36s-16.81-33.87-38.49-36a57.61,57.61,0,0,1,0,72Z"/><path class="cls-2" d="M224.12,213.61c21.67-2.14,38.48-17.44,38.48-36s-16.81-33.87-38.48-36a57.61,57.61,0,0,1,0,72Z"/><path class="cls-2" d="M224.54,213.61c21.68-2.14,38.49-17.44,38.49-36s-16.81-33.87-38.49-36a57.61,57.61,0,0,1,0,72Z"/><path class="cls-2" d="M225,213.61c21.68-2.14,38.49-17.44,38.49-36s-16.81-33.87-38.49-36a57.58,57.58,0,0,1,0,72Z"/><path class="cls-2" d="M225.39,213.61c21.67-2.14,38.49-17.44,38.49-36s-16.82-33.87-38.49-36a57.61,57.61,0,0,1,0,72Z"/><path class="cls-2" d="M225.81,213.61c21.68-2.14,38.49-17.44,38.49-36s-16.81-33.87-38.49-36a57.58,57.58,0,0,1,0,72Z"/><path class="cls-2" d="M226.24,213.61c21.67-2.14,38.48-17.44,38.48-36s-16.81-33.87-38.48-36a57.61,57.61,0,0,1,0,72Z"/><path class="cls-2" d="M226.66,213.61c21.68-2.14,38.49-17.44,38.49-36s-16.81-33.87-38.49-36a57.58,57.58,0,0,1,0,72Z"/><path class="cls-2" d="M227.09,213.61c21.67-2.14,38.48-17.44,38.48-36s-16.81-33.87-38.48-36a57.61,57.61,0,0,1,0,72Z"/><path class="cls-2" d="M227.51,213.61c21.68-2.14,38.49-17.44,38.49-36s-16.81-33.87-38.49-36c7.82,9.25,12.64,22,12.64,36S235.33,204.36,227.51,213.61Z"/><path class="cls-2" d="M227.94,213.61c21.67-2.14,38.48-17.44,38.48-36s-16.81-33.87-38.48-36a57.61,57.61,0,0,1,0,72Z"/><path class="cls-2" d="M228.36,213.61c21.68-2.14,38.49-17.44,38.49-36s-16.81-33.87-38.49-36c7.82,9.25,12.64,22,12.64,36S236.18,204.36,228.36,213.61Z"/><path class="cls-2" d="M228.79,213.61c21.67-2.14,38.48-17.44,38.48-36s-16.81-33.87-38.48-36a57.61,57.61,0,0,1,0,72Z"/><path class="cls-2" d="M229.21,213.61c21.68-2.14,38.49-17.44,38.49-36s-16.81-33.87-38.49-36a57.61,57.61,0,0,1,0,72Z"/><path class="cls-2" d="M229.64,213.61c21.67-2.14,38.48-17.44,38.48-36s-16.81-33.87-38.48-36a57.61,57.61,0,0,1,0,72Z"/><path class="cls-2" d="M230.06,213.61c21.67-2.14,38.49-17.44,38.49-36s-16.82-33.87-38.49-36a57.61,57.61,0,0,1,0,72Z"/><path class="cls-2" d="M230.48,213.61c21.68-2.14,38.49-17.44,38.49-36s-16.81-33.87-38.49-36a57.58,57.58,0,0,1,0,72Z"/><path class="cls-2" d="M230.91,213.61c21.67-2.14,38.48-17.44,38.48-36s-16.81-33.87-38.48-36a57.61,57.61,0,0,1,0,72Z"/><path class="cls-2" d="M231.33,213.61c21.68-2.14,38.49-17.44,38.49-36s-16.81-33.87-38.49-36a57.58,57.58,0,0,1,0,72Z"/><path class="cls-2" d="M231.76,213.61c21.67-2.14,38.48-17.44,38.48-36s-16.81-33.87-38.48-36a57.61,57.61,0,0,1,0,72Z"/><path class="cls-2" d="M232.18,213.61c21.68-2.14,38.49-17.44,38.49-36s-16.81-33.87-38.49-36c7.82,9.25,12.64,22,12.64,36S240,204.36,232.18,213.61Z"/><path class="cls-2" d="M232.61,213.61c21.67-2.14,38.48-17.44,38.48-36s-16.81-33.87-38.48-36a57.61,57.61,0,0,1,0,72Z"/><path class="cls-2" d="M233,213.61c21.68-2.14,38.49-17.44,38.49-36s-16.81-33.87-38.49-36c7.82,9.25,12.64,22,12.64,36S240.85,204.36,233,213.61Z"/><path class="cls-2" d="M233.46,213.61c21.67-2.14,38.48-17.44,38.48-36s-16.81-33.87-38.48-36a57.61,57.61,0,0,1,0,72Z"/><path class="cls-2" d="M233.88,213.61c21.68-2.14,38.49-17.44,38.49-36s-16.81-33.87-38.49-36a57.61,57.61,0,0,1,0,72Z"/><path class="cls-2" d="M234.31,213.61c21.67-2.14,38.48-17.44,38.48-36s-16.81-33.87-38.48-36a57.61,57.61,0,0,1,0,72Z"/><path class="cls-2" d="M234.73,213.61c21.67-2.14,38.49-17.44,38.49-36s-16.82-33.87-38.49-36a57.61,57.61,0,0,1,0,72Z"/><path class="cls-2" d="M235.15,213.61c21.68-2.14,38.49-17.44,38.49-36s-16.81-33.87-38.49-36a57.58,57.58,0,0,1,0,72Z"/><path class="cls-2" d="M235.58,213.61c21.67-2.14,38.49-17.44,38.49-36s-16.82-33.87-38.49-36a57.61,57.61,0,0,1,0,72Z"/><path class="cls-2" d="M236,213.61c21.68-2.14,38.49-17.44,38.49-36s-16.81-33.87-38.49-36a57.58,57.58,0,0,1,0,72Z"/><path class="cls-2" d="M236.43,213.61c21.67-2.14,38.48-17.44,38.48-36s-16.81-33.87-38.48-36a57.61,57.61,0,0,1,0,72Z"/><path class="cls-2" d="M236.85,213.61c21.68-2.14,38.49-17.44,38.49-36s-16.81-33.87-38.49-36c7.82,9.25,12.64,22,12.64,36S244.67,204.36,236.85,213.61Z"/><path class="cls-2" d="M237.28,213.61c21.67-2.14,38.48-17.44,38.48-36s-16.81-33.87-38.48-36a57.61,57.61,0,0,1,0,72Z"/><path class="cls-2" d="M237.7,213.61c21.68-2.14,38.49-17.44,38.49-36s-16.81-33.87-38.49-36c7.82,9.25,12.64,22,12.64,36S245.52,204.36,237.7,213.61Z"/><path class="cls-2" d="M238.13,213.61c21.67-2.14,38.48-17.44,38.48-36s-16.81-33.87-38.48-36a57.61,57.61,0,0,1,0,72Z"/><path class="cls-2" d="M238.55,213.61c21.68-2.14,38.49-17.44,38.49-36s-16.81-33.87-38.49-36a57.61,57.61,0,0,1,0,72Z"/><path class="cls-2" d="M239,213.61c21.67-2.14,38.48-17.44,38.48-36s-16.81-33.87-38.48-36a57.61,57.61,0,0,1,0,72Z"/><path class="cls-2" d="M239.4,213.61c21.67-2.14,38.49-17.44,38.49-36s-16.82-33.87-38.49-36a57.61,57.61,0,0,1,0,72Z"/><path class="cls-2" d="M239.82,213.61c21.68-2.14,38.49-17.44,38.49-36s-16.81-33.87-38.49-36a57.58,57.58,0,0,1,0,72Z"/><path class="cls-2" d="M240.25,213.61c21.67-2.14,38.49-17.44,38.49-36s-16.82-33.87-38.49-36a57.61,57.61,0,0,1,0,72Z"/><path class="cls-2" d="M240.67,213.61c21.68-2.14,38.49-17.44,38.49-36s-16.81-33.87-38.49-36a57.58,57.58,0,0,1,0,72Z"/><path class="cls-2" d="M241.1,213.61c21.67-2.14,38.48-17.44,38.48-36s-16.81-33.87-38.48-36a57.61,57.61,0,0,1,0,72Z"/><path class="cls-2" d="M241.52,213.61c21.68-2.14,38.49-17.44,38.49-36s-16.81-33.87-38.49-36c7.82,9.25,12.64,22,12.64,36S249.34,204.36,241.52,213.61Z"/><path class="cls-2" d="M242,213.61c21.67-2.14,38.48-17.44,38.48-36s-16.81-33.87-38.48-36a57.61,57.61,0,0,1,0,72Z"/><path class="cls-2" d="M242.37,213.61c21.68-2.14,38.49-17.44,38.49-36s-16.81-33.87-38.49-36c7.82,9.25,12.64,22,12.64,36S250.19,204.36,242.37,213.61Z"/><path class="cls-2" d="M206.59,121.79a7,7,0,0,0,7-7V21.27a7,7,0,0,0-7-7h-49.5a7,7,0,0,0-7,7V114.8a7,7,0,0,0,7,7h20.32v10.47a43.45,43.45,0,0,0-12.8-1.93c-25.32,0-45.84,21.67-45.84,48.41s20.52,48.4,45.84,48.4a43.45,43.45,0,0,0,12.8-1.93v13H157.09a7,7,0,0,0-7,7v93.53a7,7,0,0,0,7,7h49.5a7,7,0,0,0,7-7V245.2a7,7,0,0,0-7-7H186.27V221.4c14.39-8.16,24.18-24.2,24.18-42.66s-9.79-34.5-24.18-42.67V121.79Z"/><path class="cls-3" d="M160,174.31H112.87a14,14,0,1,0,0,8.86H160a4.27,4.27,0,0,0,4.27-4.27v-.32A4.27,4.27,0,0,0,160,174.31Z"/></g></g></svg>