<svg xmlns="http://www.w3.org/2000/svg" viewBox="0 0 360 360"><defs><style>.cls-1{fill:#ffde00;}.cls-2{fill:#f16624;}.cls-3{fill:#db504a;}.cls-4{fill:#dad8d8;}.cls-10,.cls-5{fill:#9fd3ee;}.cls-5{stroke:#db504a;stroke-width:2.85px;}.cls-12,.cls-5,.cls-9{stroke-miterlimit:10;}.cls-6{fill:#e6e6e6;}.cls-7{fill:#ccc;}.cls-8{fill:#29abe2;}.cls-12,.cls-9{fill:none;stroke-linecap:round;}.cls-9{stroke:gray;stroke-width:2.97px;}.cls-11{fill:#f2f2f2;}.cls-12{stroke:#e6e6e6;stroke-width:11.39px;}</style></defs><g id="astronaut"><g id="astronaut_2" data-name="astronaut 2"><g id="rocket_fire_2" data-name="rocket fire 2"><g id="fire"><polyline class="cls-1" points="96.84 347.93 100.11 300.26 109.36 322.23 108.81 288.39 119.57 300.51 114.32 275.79 124.3 278.14 115.48 262.33 123.75 253.79 97.45 215.46 69.93 253.79 78.2 262.33 69.39 278.14 79.37 275.79 74.12 300.51 84.87 288.39 84.33 322.23 93.58 300.26 96.84 347.93"/><polyline class="cls-2" points="96.84 290.85 98.57 265.56 103.48 277.22 103.19 259.27 108.9 265.69 106.11 252.58 111.41 253.83 106.73 245.44 111.12 240.91 97.17 220.57 82.56 240.91 86.95 245.44 82.28 253.83 87.57 252.58 84.79 265.69 90.49 259.27 90.2 277.22 95.11 265.56 96.84 290.85"/></g><g id="rocket_ship" data-name="rocket ship"><path class="cls-3" d="M57.92,203c-15.53,2.58-27.33,15.19-27.33,30.39,0,12,7.34,22.36,18.05,27.48a1.31,1.31,0,0,0,1.89-1.47,28.84,28.84,0,0,1-1.35-8.7,29.83,29.83,0,0,1,10.41-22.44A117,117,0,0,1,57.92,203Z"/><path class="cls-3" d="M135.76,203c15.53,2.58,27.33,15.19,27.33,30.39,0,12-7.33,22.36-18,27.48a1.32,1.32,0,0,1-1.9-1.47,28.53,28.53,0,0,0,1.36-8.7,29.84,29.84,0,0,0-10.42-22.44A115.74,115.74,0,0,0,135.76,203Z"/><path class="cls-4" d="M63.81,151.41c-11.14,28.75-13.91,66.45-3.38,90.23,20.27,10,52.65,10,72.82,0,10.53-23.78,7.76-61.48-3.37-90.23a180.87,180.87,0,0,1-33,2.91A180.67,180.67,0,0,1,63.81,151.41Z"/><path class="cls-3" d="M104.4,115.72a14.61,14.61,0,0,0-15.12,0c-10.52,6.5-19.28,19.72-25.47,35.69a180.67,180.67,0,0,0,33,2.91,180.87,180.87,0,0,0,33-2.91C123.69,135.44,114.93,122.22,104.4,115.72Z"/><circle class="cls-5" cx="96.84" cy="189" r="14.36"/></g></g><g id="astronaut_fly" data-name="astronaut fly"><path class="cls-6" d="M319.88,87.17c-11.1-45.87-53.8-75.1-104.83-75.1-59.46,0-110.12,41.2-110.12,100.66,0,29.05,14,50.45,32.68,66.34a206.68,206.68,0,0,0-19,34.57c-12.77,29.9-22.77,68.42,32.27,80.09,2.7,6.58,6.85,15.37,4.87,17.72a16.67,16.67,0,0,1-2.14,1.82h0c-2.64,3,1.41,11.33,5.33,15.15l.28.25.16.15c1.05.87,3.57,2.65,3.49-.43a.17.17,0,0,0,0-.07l0,.07c7.49-1.31,17.29-4.88,22.22-8.57,3.83-2.86,4.92-10.11,1.34-21.66,6.08.42,11.85.66,17.26.63,1.08,2.44,1.35,4.75-.23,6.41a21.15,21.15,0,0,1-2.53,2h0c-3.15,3.2,1.22,11.4,5.6,15.06l.32.25.18.14c1.17.82,4,2.5,4-.62,0,0,0-.05,0-.07,0-.21,0-.41-.08-.61l.06,0c0,.22,0,.4,0,.59a.15.15,0,0,1,0,.07c8.68-1.72,20.08-5.85,25.88-9.83,4.44-3.05,6-8.38,2.52-18.86,27-10.37,37.69-36.57,35.21-88.21a96.06,96.06,0,0,0-1.57-13.3,95.94,95.94,0,0,0,21.92-15c23.41-50.7-20.77-34.12-43.43-28.34a123.84,123.84,0,0,0-30.14-24.22c0-1.66-.11-3.38-.27-5.22-3.46-41.61-27.26-27.83,20-31.77C276.53,84.34,329.41,144.72,319.88,87.17Z"/><path class="cls-3" d="M186.19,236.14l-8.88-2.36a5.54,5.54,0,0,0-6.78,3.92l-4.94,18.58c7.67,1,14.28,4.56,18.41,9.61l6.12-23A5.54,5.54,0,0,0,186.19,236.14Z"/><path class="cls-3" d="M289.8,213.14l-8.89-2.37a5.54,5.54,0,0,0-6.77,3.93l-4.95,18.57c7.67,1,14.28,4.57,18.42,9.62l6.11-23A5.54,5.54,0,0,0,289.8,213.14Z"/><path class="cls-7" d="M211.08,322c0,3.12-2.86,1.44-4,.62l-.2-.15-.3-.22s0,0,0,0c-4.38-3.66-8.75-11.86-5.6-15.06h0a16.55,16.55,0,0,0-3.71-1.62,5.49,5.49,0,0,0-6.84,6.35c2.56,14,8.49,17.59,14.2,19.09a5.28,5.28,0,0,0,6.51-4.52,17.56,17.56,0,0,0,0-4.47Z"/><g id="left_leg" data-name="left leg"><path class="cls-8" d="M163.93,328.09h0a.17.17,0,0,1,0-.07Z"/><path class="cls-7" d="M162.26,327.25c0,3.12-1.2,2.26-2.36,1.43l-.2-.14-.3-.23v0c-4.36-3.7-6.5-10.92-5.5-15.1h0a16.39,16.39,0,0,0-3.7-1.64,5.49,5.49,0,0,0-6.89,6.3c2.45,14,8.36,17.65,14,19.2,3.07.83,5.28-1.33,6.07-4.41a9.35,9.35,0,0,0-.87-5.88Z"/><path class="cls-8" d="M163.91,327.44l-.07,0c0,.19.06.4.09.6C163.93,327.83,163.93,327.66,163.91,327.44Z"/><path class="cls-8" d="M159.7,328.54l.2.14-.18-.14Z"/><path class="cls-8" d="M159.7,328.54h0l-.31-.25v0Z"/></g><path class="cls-9" d="M160.17,224.5c-3.1,3-6.76,19-4.5,24.07"/><path class="cls-7" d="M180.36,290.75c-9.63,7.62-25,4.2-34.38-7.64s-9.12-27.6.52-35.21c6.43-5.08,13.93-6.28,21.64-2.72,5.6,2.58,5.74,7.1,8.25,12.74,1.53,3.44,6.24,5.77,8.66,7.56C192.47,271,189.17,283.8,180.36,290.75Z"/><path class="cls-7" d="M287.27,260.93c-7.85,13.27-22.58,19.09-32.89,13s-12.3-21.81-4.45-35.08c5.24-8.85,12-14.51,19.64-15.6,5.55-.8,6.31,3.57,9.42,7.65,1.9,2.48,6.59,2,9.07,2.29C295.71,234.18,294.44,248.8,287.27,260.93Z"/><path class="cls-10" d="M329.17,116.14a67.61,67.61,0,0,0-9.29-29c-15.3-25.84-47.2-42.18-82.54-39.24-47.25,3.94-82.74,40.87-79.27,82.47s44.58,63.6,91.83,59.66c17-1.41,32.45-6,45.14-13.23C317.62,164,331.39,142.78,329.17,116.14Z"/><g id="ear_thing" data-name="ear thing"><ellipse class="cls-11" cx="131.98" cy="126.32" rx="22.61" ry="32.29" transform="matrix(0.97, -0.26, 0.26, 0.97, -28, 38.11)"/><ellipse class="cls-7" cx="124.97" cy="129.32" rx="15.08" ry="28.37" transform="translate(-29.01 36.41) rotate(-14.87)"/></g><path class="cls-12" d="M189.15,112.73c5.14-17.78,16.38-30.64,31.19-34.62"/></g></g></g></svg>