<svg xmlns="http://www.w3.org/2000/svg" viewBox="0 0 360 360"><defs><style>.cls-1{fill:#ffde00;}.cls-2{fill:#ffec76;}</style></defs><g id="star"><g id="star-2" data-name="star"><path class="cls-1" d="M281.74,342.8a6.2,6.2,0,0,1-2.91-.74l-92.28-48.51a14.05,14.05,0,0,0-13.1,0L81.17,342.06a6.2,6.2,0,0,1-2.91.74,6.39,6.39,0,0,1-4.8-2.27,6.09,6.09,0,0,1-1.34-5L89.74,232.73a14,14,0,0,0-4-12.46L11,147.5a6.24,6.24,0,0,1,3.45-10.64l103.18-15a14.11,14.11,0,0,0,10.6-7.71l46.14-93.48a6.23,6.23,0,0,1,11.18,0l46.14,93.49a14.11,14.11,0,0,0,10.6,7.71l103.18,15A6.24,6.24,0,0,1,349,147.5l-74.65,72.77a14,14,0,0,0-4.05,12.46l17.62,102.76a6.09,6.09,0,0,1-1.34,5A6.39,6.39,0,0,1,281.74,342.8Z"/><path class="cls-2" d="M180,21.12a2.19,2.19,0,0,1,2.08,1.29l46.14,93.49a18,18,0,0,0,13.55,9.85l103.17,15a2.32,2.32,0,0,1,1.29,3.95l-74.66,72.77a18,18,0,0,0-5.18,15.93L284,336.15a2.16,2.16,0,0,1-.47,1.85,2.48,2.48,0,0,1-1.81.88,2.22,2.22,0,0,1-1.08-.29l-92.28-48.51a18,18,0,0,0-16.76,0L79.34,338.59a2.22,2.22,0,0,1-1.08.29,2.48,2.48,0,0,1-1.81-.88,2.16,2.16,0,0,1-.47-1.85L93.61,233.39a18,18,0,0,0-5.18-15.93L13.77,144.69a2.32,2.32,0,0,1,1.29-3.95l103.17-15a18,18,0,0,0,13.55-9.85l46.14-93.49A2.19,2.19,0,0,1,180,21.12m0-7.84a10,10,0,0,0-9.11,5.66l-46.14,93.49A10.16,10.16,0,0,1,117.1,118L13.93,133A10.16,10.16,0,0,0,8.3,150.31L83,223.08a10.17,10.17,0,0,1,2.92,9L68.25,334.82a10.18,10.18,0,0,0,10,11.9A10.05,10.05,0,0,0,83,345.53L175.27,297a10.15,10.15,0,0,1,9.46,0L277,345.53a10.05,10.05,0,0,0,4.73,1.19,10.18,10.18,0,0,0,10-11.9L274.12,232.07a10.17,10.17,0,0,1,2.92-9l74.66-72.77A10.16,10.16,0,0,0,346.07,133L242.9,118a10.16,10.16,0,0,1-7.65-5.56L189.11,18.94A10,10,0,0,0,180,13.28Z"/></g></g></svg>